
PublicHD - High-Definition Bittorrent Community 
   
  http://publichd.eu/

-----------------------------------------------------



UEFA.Euro.2012.Quarter.Final.Germany.vs.Greece.PDTV.x264-W4F [PublicHD]


Video
ID                               : 1
Format                           : AVC
Format/Info                      : Advanced Video Codec
Format profile                   : High@L3.1
Format settings, CABAC           : Yes
Format settings, ReFrames        : 5 frames
Codec ID                         : avc1
Codec ID/Info                    : Advanced Video Coding
Duration                         : 1h 39mn
Bit rate                         : 990 Kbps
Maximum bit rate                 : 4 977 Kbps
Width                            : 704 pixels
Height                           : 390 pixels
Display aspect ratio             : 16:9
Frame rate mode                  : Constant
Frame rate                       : 25.000 fps
Color space                      : YUV
Chroma subsampling               : 4:2:0
Bit depth                        : 8 bits
Scan type                        : Progressive
Bits/(Pixel*Frame)               : 0.144
Stream size                      : 703 MiB (88%)
Title                            : Video
Writing library                  : x264 core 125 r2200 999b753

Audio
ID                               : 2
Format                           : AAC
Format/Info                      : Advanced Audio Codec
Format profile                   : LC
Codec ID                         : 40
Duration                         : 1h 39mn
Bit rate mode                    : Variable
Bit rate                         : 132.3 Kbps
Maximum bit rate                 : 144 Kbps
Channel(s)                       : 2 channels
Channel positions                : Front: L R
Sampling rate                    : 48.0 KHz
Compression mode                 : Lossy
Stream size                      : 93.9 MiB (12%)
Language                         : English
Encoded date                     : UTC 2012-06-22 23:24:37
Tagged date                      : UTC 2012-06-22 23:24:40
